<svg width="419" height="501" viewBox="0 0 419 501" fill="none" xmlns="http://www.w3.org/2000/svg">
<path d="M327.638 162.783C367.085 162.783 399.064 130.805 399.064 91.3577C399.064 51.9105 367.085 19.9321 327.638 19.9321C288.191 19.9321 256.212 51.9105 256.212 91.3577C256.212 130.805 288.191 162.783 327.638 162.783Z" fill="black"/>
<path d="M373.088 136.922C398.24 111.77 398.24 70.9906 373.088 45.8386C347.936 20.6866 307.157 20.6866 282.005 45.8386C256.853 70.9906 256.853 111.77 282.005 136.922C307.157 162.074 347.936 162.074 373.088 136.922Z" fill="white"/>
<path d="M327.546 37.5059V147.325C357.402 146.774 381.438 122.404 381.438 92.4143C381.438 62.4248 357.404 38.0549 327.546 37.5059Z" fill="black"/>
<path d="M378.795 126.465C378.677 126.465 378.559 126.431 378.454 126.36C378.172 126.171 378.102 125.793 378.288 125.512C380.132 122.782 381.764 119.887 383.138 116.905C383.28 116.598 383.64 116.464 383.95 116.605C384.254 116.747 384.391 117.11 384.249 117.417C382.846 120.46 381.183 123.412 379.302 126.197C379.184 126.373 378.992 126.465 378.795 126.465Z" fill="black"/>
<path d="M388.663 101.107C388.634 101.107 388.602 101.107 388.573 101.102C388.24 101.052 388.009 100.742 388.059 100.409C388.5 97.4372 388.723 94.3923 388.723 91.3605C388.723 68.1045 375.193 46.5168 354.257 36.3654C353.952 36.2182 353.826 35.8531 353.973 35.5483C354.12 35.2462 354.486 35.1174 354.79 35.2646C365.168 40.2983 373.945 48.1037 380.172 57.8401C386.566 67.8418 389.947 79.433 389.947 91.3605C389.947 94.4501 389.719 97.5554 389.27 100.587C389.225 100.889 388.962 101.107 388.665 101.107H388.663Z" fill="black"/>
<path d="M312.306 32.1937C312.033 32.1937 311.786 32.0098 311.715 31.7339C311.631 31.4082 311.828 31.0745 312.156 30.9904C321.63 28.5682 331.818 28.4237 341.363 30.5675C341.691 30.641 341.899 30.9694 341.825 31.2978C341.751 31.6262 341.428 31.8338 341.095 31.7602C331.739 29.6584 321.748 29.8003 312.461 32.1753C312.411 32.1884 312.358 32.1937 312.308 32.1937H312.306Z" fill="black"/>
<path d="M271.156 67.1062C271.075 67.1062 270.991 67.0905 270.909 67.0537C270.599 66.9171 270.46 66.5571 270.597 66.2471C273.599 59.4322 277.769 53.2609 282.986 47.9014C283.223 47.6597 283.609 47.6545 283.851 47.8909C284.092 48.1273 284.098 48.5135 283.864 48.7552C278.749 54.0096 274.663 60.0601 271.718 66.741C271.619 66.9696 271.393 67.1062 271.159 67.1062H271.156Z" fill="black"/>
<path d="M294.664 144.125C294.554 144.125 294.438 144.094 294.338 144.031C289.071 140.694 284.339 136.593 280.278 131.846C280.057 131.588 280.088 131.205 280.343 130.984C280.598 130.766 280.987 130.795 281.205 131.052C285.188 135.708 289.827 139.727 294.992 142.998C295.279 143.179 295.363 143.555 295.182 143.841C295.066 144.025 294.866 144.125 294.664 144.125Z" fill="black"/>
<path d="M328.925 39.1935C330.638 38.4839 331.452 36.5198 330.742 34.8066C330.032 33.0934 328.068 32.2799 326.355 32.9895C324.642 33.6992 323.828 35.6632 324.538 37.3764C325.248 39.0896 327.212 39.9031 328.925 39.1935Z" fill="white"/>
<path d="M327.638 40.0591C325.45 40.0591 323.671 38.2779 323.671 36.0921C323.671 33.9062 325.453 32.125 327.638 32.125C329.824 32.125 331.606 33.9062 331.606 36.0921C331.606 38.2779 329.824 40.0591 327.638 40.0591ZM327.638 33.3466C326.125 33.3466 324.893 34.5788 324.893 36.0921C324.893 37.6053 326.125 38.8375 327.638 38.8375C329.152 38.8375 330.384 37.6053 330.384 36.0921C330.384 34.5788 329.152 33.3466 327.638 33.3466Z" fill="black"/>
<path d="M328.933 149.702C330.644 148.986 331.451 147.019 330.736 145.309C330.02 143.598 328.054 142.791 326.343 143.506C324.632 144.221 323.825 146.188 324.54 147.899C325.255 149.61 327.222 150.417 328.933 149.702Z" fill="white"/>
<path d="M327.639 150.593C325.45 150.593 323.672 148.812 323.672 146.626C323.672 144.44 325.453 142.659 327.639 142.659C329.824 142.659 331.606 144.44 331.606 146.626C331.606 148.812 329.824 150.593 327.639 150.593ZM327.639 143.881C326.125 143.881 324.893 145.113 324.893 146.626C324.893 148.14 326.125 149.372 327.639 149.372C329.152 149.372 330.384 148.14 330.384 146.626C330.384 145.113 329.152 143.881 327.639 143.881Z" fill="black"/>
<path d="M272.37 88.0029C274.225 88.0029 275.728 89.5057 275.728 91.3605C275.728 93.2153 274.225 94.718 272.37 94.718C270.516 94.718 269.013 93.2153 269.013 91.3605C269.013 89.5057 270.516 88.0029 272.37 88.0029Z" fill="white"/>
<path d="M272.37 95.3277C270.182 95.3277 268.403 93.5465 268.403 91.3606C268.403 89.1748 270.184 87.3936 272.37 87.3936C274.556 87.3936 276.337 89.1748 276.337 91.3606C276.337 93.5465 274.556 95.3277 272.37 95.3277ZM272.37 88.6126C270.857 88.6126 269.625 89.8447 269.625 91.358C269.625 92.8713 270.857 94.1034 272.37 94.1034C273.884 94.1034 275.116 92.8713 275.116 91.358C275.116 89.8447 273.884 88.6126 272.37 88.6126Z" fill="black"/>
<path d="M382.904 94.7156C384.758 94.7156 386.262 93.2124 386.262 91.358C386.262 89.5037 384.758 88.0005 382.904 88.0005C381.05 88.0005 379.547 89.5037 379.547 91.358C379.547 93.2124 381.05 94.7156 382.904 94.7156Z" fill="white"/>
<path d="M382.904 95.3277C380.716 95.3277 378.937 93.5465 378.937 91.3606C378.937 89.1748 380.716 87.3936 382.904 87.3936C385.093 87.3936 386.871 89.1748 386.871 91.3606C386.871 93.5465 385.09 95.3277 382.904 95.3277ZM382.904 88.6126C381.391 88.6126 380.159 89.8447 380.159 91.358C380.159 92.8713 381.391 94.1034 382.904 94.1034C384.417 94.1034 385.65 92.8713 385.65 91.358C385.65 89.8447 384.417 88.6126 382.904 88.6126Z" fill="black"/>
<path d="M301.55 42.6024C302.044 43.4562 301.75 44.5491 300.896 45.043C300.042 45.5369 298.949 45.2427 298.455 44.3889C297.961 43.535 298.255 42.4421 299.109 41.9482C299.963 41.4543 301.056 41.7485 301.55 42.6024Z" fill="white"/>
<path d="M300.008 45.8941C299.178 45.8941 298.371 45.4633 297.927 44.6961C297.607 44.1418 297.522 43.4955 297.688 42.8755C297.853 42.2555 298.25 41.7405 298.805 41.42C299.359 41.0995 300.005 41.0154 300.623 41.181C301.24 41.3465 301.757 41.7432 302.078 42.2975C302.399 42.8518 302.483 43.4981 302.317 44.1155C302.152 44.7329 301.755 45.2505 301.201 45.571C300.825 45.7891 300.412 45.8915 300.005 45.8915L300.008 45.8941ZM300.003 42.3212C299.8 42.3212 299.598 42.3737 299.417 42.4788C299.143 42.6364 298.949 42.8886 298.87 43.1934C298.789 43.4955 298.831 43.8134 298.988 44.0866C299.312 44.6489 300.034 44.8433 300.594 44.5175C300.867 44.3599 301.061 44.1076 301.14 43.8029C301.222 43.5008 301.18 43.1829 301.022 42.9096C300.864 42.6364 300.612 42.442 300.307 42.3632C300.207 42.3369 300.102 42.3238 300.003 42.3238V42.3212Z" fill="black"/>
<path d="M278.882 117.446C279.736 116.952 280.829 117.246 281.323 118.1C281.817 118.954 281.522 120.047 280.669 120.541C279.815 121.035 278.722 120.74 278.228 119.886C277.734 119.033 278.028 117.94 278.882 117.446Z" fill="white"/>
<path d="M279.778 121.392C279.571 121.392 279.361 121.366 279.153 121.311C278.536 121.145 278.018 120.748 277.698 120.194C277.038 119.048 277.43 117.58 278.575 116.92C279.721 116.258 281.189 116.652 281.851 117.798C282.513 118.943 282.119 120.412 280.974 121.071C280.603 121.284 280.193 121.395 279.778 121.395V121.392ZM279.773 117.816C279.573 117.816 279.371 117.866 279.187 117.974C278.625 118.297 278.433 119.02 278.756 119.579C278.914 119.85 279.166 120.044 279.471 120.126C279.773 120.207 280.091 120.165 280.364 120.007C280.926 119.684 281.118 118.962 280.795 118.402C280.577 118.027 280.183 117.814 279.776 117.814L279.773 117.816Z" fill="black"/>
<path d="M374.607 62.1777C375.461 61.6838 376.554 61.978 377.048 62.8319C377.542 63.6857 377.247 64.7786 376.394 65.2725C375.54 65.7664 374.447 65.4722 373.953 64.6184C373.459 63.7645 373.753 62.6716 374.607 62.1777Z" fill="white"/>
<path d="M375.503 66.1236C375.295 66.1236 375.085 66.0973 374.877 66.0395C374.26 65.874 373.743 65.4773 373.422 64.923C372.76 63.7775 373.154 62.3089 374.299 61.6468C375.445 60.9874 376.914 61.3789 377.576 62.5243C377.896 63.0787 377.98 63.725 377.815 64.3423C377.649 64.9597 377.252 65.4773 376.698 65.7978C376.328 66.0106 375.918 66.121 375.503 66.121V66.1236ZM374.912 62.7082C374.349 63.0314 374.158 63.7539 374.481 64.3134C374.638 64.584 374.891 64.7785 375.195 64.8599C375.497 64.9413 375.815 64.8993 376.089 64.7417C376.651 64.4185 376.843 63.6961 376.519 63.1365C376.196 62.5742 375.476 62.3825 374.914 62.7056L374.912 62.7082Z" fill="black"/>
<path d="M280.669 62.1777C281.523 62.6716 281.817 63.7645 281.323 64.6184C280.829 65.4722 279.736 65.7664 278.883 65.2725C278.029 64.7786 277.735 63.6857 278.228 62.8319C278.722 61.978 279.815 61.6838 280.669 62.1777Z" fill="white"/>
<path d="M279.771 66.1239C279.363 66.1239 278.954 66.0215 278.575 65.8034C277.43 65.144 277.036 63.6728 277.698 62.5299C278.018 61.9756 278.536 61.5789 279.153 61.4134C279.773 61.2479 280.417 61.3319 280.971 61.6524C282.117 62.3145 282.511 63.7831 281.849 64.9286C281.405 65.6957 280.598 66.1266 279.768 66.1266L279.771 66.1239ZM279.776 62.5483C279.673 62.5483 279.571 62.5615 279.469 62.5877C279.164 62.6692 278.912 62.8636 278.754 63.1342C278.431 63.6964 278.623 64.4163 279.185 64.7394C279.744 65.0625 280.467 64.8708 280.79 64.3085C281.113 63.7463 280.921 63.0265 280.359 62.7033C280.178 62.5982 279.976 62.5457 279.773 62.5457L279.776 62.5483Z" fill="black"/>
<path d="M376.394 117.446C377.248 117.94 377.542 119.033 377.048 119.886C376.554 120.74 375.461 121.035 374.607 120.541C373.753 120.047 373.459 118.954 373.953 118.1C374.447 117.246 375.54 116.952 376.394 117.446Z" fill="white"/>
<path d="M375.495 121.389C375.088 121.389 374.675 121.287 374.3 121.069C373.154 120.407 372.76 118.938 373.422 117.793C373.743 117.238 374.26 116.842 374.878 116.676C375.495 116.511 376.141 116.595 376.696 116.915C377.25 117.236 377.647 117.753 377.812 118.371C377.978 118.988 377.894 119.634 377.573 120.189C377.129 120.956 376.323 121.387 375.492 121.387L375.495 121.389ZM375.503 117.816C375.401 117.816 375.298 117.829 375.198 117.856C374.893 117.937 374.641 118.132 374.484 118.402C374.16 118.964 374.352 119.684 374.915 120.007C375.477 120.331 376.197 120.139 376.52 119.576C376.845 119.014 376.651 118.294 376.089 117.971C375.908 117.866 375.705 117.814 375.503 117.814V117.816Z" fill="black"/>
<path d="M298.458 138.327C298.952 137.473 300.045 137.179 300.899 137.673C301.753 138.167 302.047 139.26 301.553 140.113C301.059 140.967 299.966 141.262 299.112 140.768C298.258 140.274 297.964 139.181 298.458 138.327Z" fill="white"/>
<path d="M300 141.619C299.593 141.619 299.183 141.517 298.805 141.298C297.659 140.636 297.265 139.168 297.927 138.022C298.589 136.877 300.058 136.485 301.203 137.145C301.758 137.465 302.154 137.983 302.32 138.6C302.485 139.218 302.401 139.864 302.081 140.418C301.637 141.186 300.83 141.616 300 141.616V141.619ZM298.986 138.635C298.663 139.197 298.855 139.917 299.417 140.24C299.976 140.563 300.699 140.371 301.022 139.809C301.18 139.538 301.222 139.22 301.14 138.918C301.059 138.616 300.864 138.361 300.594 138.204C300.032 137.881 299.312 138.072 298.989 138.635H298.986Z" fill="black"/>
<path d="M353.724 42.6024C354.218 41.7485 355.311 41.4543 356.165 41.9482C357.019 42.4421 357.313 43.535 356.819 44.3889C356.325 45.2427 355.232 45.5369 354.378 45.043C353.524 44.5491 353.23 43.4562 353.724 42.6024Z" fill="white"/>
<path d="M355.266 45.8944C354.859 45.8944 354.449 45.792 354.071 45.5739C353.516 45.2534 353.119 44.7359 352.954 44.1185C352.788 43.5011 352.873 42.8548 353.193 42.3004C353.514 41.7461 354.031 41.3494 354.649 41.1839C355.266 41.0184 355.912 41.1024 356.467 41.423C357.021 41.7435 357.418 42.2584 357.583 42.8784C357.749 43.4958 357.665 44.1421 357.344 44.6991C356.9 45.4662 356.093 45.8971 355.263 45.8971L355.266 45.8944ZM355.274 42.3215C355.171 42.3215 355.069 42.3346 354.969 42.3609C354.667 42.4423 354.412 42.6367 354.254 42.9073C354.097 43.1779 354.055 43.4958 354.136 43.8006C354.218 44.1027 354.412 44.3575 354.683 44.5152C355.242 44.8383 355.965 44.6465 356.288 44.0843C356.446 43.8111 356.488 43.4958 356.406 43.1911C356.325 42.8889 356.13 42.6341 355.86 42.4765C355.678 42.3714 355.476 42.3188 355.274 42.3188V42.3215Z" fill="black"/>
<path d="M353.724 139.162C354.218 138.309 355.311 138.014 356.165 138.508C357.019 139.002 357.313 140.095 356.819 140.949C356.325 141.803 355.232 142.097 354.378 141.603C353.524 141.109 353.23 140.016 353.724 139.162Z" fill="white"/>
<path d="M355.268 142.454C354.853 142.454 354.443 142.347 354.073 142.131C353.519 141.811 353.122 141.296 352.956 140.676C352.791 140.058 352.875 139.412 353.195 138.855C353.858 137.71 355.326 137.316 356.469 137.978C357.023 138.298 357.42 138.816 357.586 139.433C357.751 140.05 357.667 140.697 357.346 141.251C357.026 141.805 356.508 142.202 355.891 142.368C355.683 142.423 355.476 142.449 355.266 142.449L355.268 142.454ZM354.254 139.467C354.097 139.74 354.055 140.056 354.136 140.36C354.217 140.663 354.412 140.917 354.682 141.075C354.956 141.233 355.271 141.275 355.573 141.193C355.875 141.112 356.13 140.917 356.288 140.647C356.445 140.374 356.487 140.058 356.406 139.756C356.324 139.454 356.13 139.199 355.859 139.042C355.3 138.716 354.577 138.91 354.254 139.472V139.467Z" fill="black"/>
<path d="M347.657 99.2556C330.827 96.3 326.456 93.7148 326.839 91.5421C327.22 89.3694 332.212 88.4289 349.042 91.3845C361.072 93.4968 375.7 98.139 383.064 100.616C384.188 100.995 383.976 102.201 382.791 102.172C375.022 101.99 359.69 101.37 347.66 99.2556H347.657Z" fill="white"/>
<path d="M382.833 102.784C382.815 102.784 382.796 102.784 382.778 102.784C374.773 102.597 359.554 101.967 347.555 99.8597C327.956 96.4181 325.868 93.5518 326.241 91.4395C326.611 89.3273 329.551 87.3437 349.15 90.7854C361.148 92.8924 375.671 97.4873 383.261 100.041C384.189 100.354 384.499 101.076 384.399 101.657C384.299 102.224 383.779 102.789 382.836 102.789L382.833 102.784ZM332.798 90.1207C328.61 90.1207 327.565 90.943 327.441 91.6497C327.223 92.895 329.572 95.4618 347.763 98.6564C359.685 100.75 374.833 101.376 382.804 101.562C383.064 101.562 383.185 101.481 383.19 101.441C383.196 101.402 383.114 101.278 382.867 101.197C375.312 98.6564 360.854 94.0825 348.934 91.9886C341.048 90.6041 336.001 90.1207 332.796 90.1207H332.798Z" fill="black"/>
<path d="M338.187 76.7195C335.044 87.1232 332 89.359 329.32 88.5498C326.64 87.7406 325.342 84.1913 328.484 73.7876C330.731 66.3526 336.006 57.8405 338.83 53.5897C339.261 52.9408 340.748 53.39 340.748 54.1677C340.748 59.2723 340.433 69.2793 338.187 76.7169V76.7195Z" fill="white"/>
<path d="M330.307 89.3142C329.924 89.3142 329.538 89.2538 329.141 89.1356C327.402 88.6101 326.38 87.1652 326.109 84.8375C325.81 82.2602 326.393 78.5874 327.896 73.6115C330.15 66.145 335.394 57.6512 338.318 53.2533C338.667 52.7279 339.376 52.5335 340.123 52.7594C340.871 52.9853 341.352 53.5397 341.352 54.1702C341.352 59.4535 341.018 69.429 338.764 76.8955C336.247 85.2289 333.471 89.3142 330.302 89.3142H330.307ZM339.524 53.8891C339.424 53.8891 339.355 53.9101 339.34 53.9285C336.452 58.2713 331.279 66.6468 329.07 73.9635C327.638 78.7108 327.05 82.3206 327.328 84.6956C327.541 86.5189 328.25 87.5881 329.498 87.9638C332.328 88.8177 335.055 84.9767 337.603 76.5408C339.813 69.2267 340.141 59.3852 340.138 54.1676C340.133 54.1282 340.015 53.9994 339.776 53.9259C339.679 53.897 339.595 53.8865 339.526 53.8865L339.524 53.8891Z" fill="black"/>
<path d="M335.16 92.5801C336.074 88.7571 333.715 84.9173 329.892 84.0037C326.069 83.0901 322.23 85.4487 321.316 89.2717C320.402 93.0947 322.761 96.9345 326.584 97.848C330.407 98.7616 334.247 96.4031 335.16 92.5801Z" fill="white"/>
<path d="M328.245 98.6563C323.984 98.6563 320.519 95.1884 320.519 90.9297C320.519 86.671 323.984 83.2031 328.245 83.2031C332.506 83.2031 335.974 86.671 335.974 90.9297C335.974 95.1884 332.506 98.6563 328.245 98.6563ZM328.245 84.4221C324.659 84.4221 321.74 87.341 321.74 90.9271C321.74 94.5132 324.659 97.432 328.245 97.432C331.831 97.432 334.75 94.5132 334.75 90.9271C334.75 87.341 331.831 84.4221 328.245 84.4221Z" fill="black"/>
<path d="M19.2945 71.4277C18.7192 71.4277 18.1412 71.32 17.5868 71.1046C16.3836 70.6369 15.4352 69.7174 14.9176 68.5168C13.8589 66.0656 14.957 63.1914 17.3635 62.1117C18.5248 61.5915 19.8147 61.5573 20.997 62.0171C22.2002 62.4847 23.1513 63.4042 23.6688 64.6049C24.7249 67.0561 23.6294 69.9302 21.2229 71.01C20.6055 71.2885 19.9513 71.4277 19.2945 71.4277ZM19.2919 62.9182C18.8059 62.9182 18.3225 63.0207 17.8653 63.2256C16.0657 64.0348 15.246 66.1917 16.0394 68.0334C16.4283 68.9319 17.135 69.6176 18.0308 69.967C18.9083 70.3085 19.8646 70.2822 20.7237 69.8987C22.5234 69.0895 23.343 66.9326 22.5496 65.0909C22.1608 64.1924 21.4541 63.5067 20.5582 63.1573C20.1484 62.997 19.7201 62.9182 19.2945 62.9182H19.2919Z" fill="black"/>
<path d="M238.813 25.4258C238.474 25.4258 238.201 25.1525 238.201 24.8136V20.1346C238.201 19.7983 238.474 19.5225 238.813 19.5225C239.152 19.5225 239.425 19.7957 239.425 20.1346V24.8163C239.425 25.1525 239.152 25.4284 238.813 25.4284V25.4258Z" fill="black"/>
<path d="M238.813 36.3337C238.474 36.3337 238.201 36.0604 238.201 35.7215V31.0399C238.201 30.7036 238.474 30.4277 238.813 30.4277C239.152 30.4277 239.425 30.701 239.425 31.0399V35.7215C239.425 36.0578 239.152 36.3337 238.813 36.3337Z" fill="black"/>
<path d="M235.702 28.5387H231.021C230.682 28.5387 230.408 28.2655 230.408 27.9266C230.408 27.5877 230.682 27.3145 231.021 27.3145H235.702C236.041 27.3145 236.314 27.5877 236.314 27.9266C236.314 28.2655 236.041 28.5387 235.702 28.5387Z" fill="black"/>
<path d="M246.61 28.5387H241.929C241.59 28.5387 241.316 28.2655 241.316 27.9266C241.316 27.5877 241.59 27.3145 241.929 27.3145H246.61C246.949 27.3145 247.222 27.5877 247.222 27.9266C247.222 28.2655 246.949 28.5387 246.61 28.5387Z" fill="black"/>
<path d="M40.1309 45.2507C39.792 45.2507 39.5187 44.9774 39.5187 44.6385V39.9569C39.5187 39.6206 39.792 39.3447 40.1309 39.3447C40.4698 39.3447 40.743 39.618 40.743 39.9569V44.6385C40.743 44.9748 40.4698 45.2507 40.1309 45.2507Z" fill="black"/>
<path d="M40.1309 56.1589C39.792 56.1589 39.5187 55.8856 39.5187 55.5467V50.8651C39.5187 50.5288 39.792 50.2529 40.1309 50.2529C40.4698 50.2529 40.743 50.5262 40.743 50.8651V55.5467C40.743 55.883 40.4698 56.1589 40.1309 56.1589Z" fill="black"/>
<path d="M37.0174 48.3639H32.3357C31.9968 48.3639 31.7236 48.0907 31.7236 47.7518C31.7236 47.4129 31.9968 47.1396 32.3357 47.1396H37.0174C37.3563 47.1396 37.6295 47.4129 37.6295 47.7518C37.6295 48.0907 37.3563 48.3639 37.0174 48.3639Z" fill="black"/>
<path d="M47.9259 48.3639H43.2442C42.9053 48.3639 42.6321 48.0907 42.6321 47.7518C42.6321 47.4129 42.9053 47.1396 43.2442 47.1396H47.9259C48.2648 47.1396 48.538 47.4129 48.538 47.7518C48.538 48.0907 48.2648 48.3639 47.9259 48.3639Z" fill="black"/>
<path d="M233.995 449.526C233.742 449.526 233.506 449.369 233.419 449.117C233.306 448.799 233.474 448.449 233.792 448.339C255.551 440.691 275.856 429.116 294.144 413.938C294.404 413.723 294.788 413.76 295.003 414.017C295.219 414.277 295.182 414.661 294.925 414.876C276.524 430.148 256.092 441.792 234.197 449.49C234.129 449.513 234.06 449.524 233.995 449.524V449.526Z" fill="black"/>
<path d="M302.68 407.895C302.514 407.895 302.351 407.83 302.231 407.698C302.002 407.451 302.018 407.063 302.265 406.834C304.595 404.69 306.912 402.457 309.156 400.198C309.395 399.959 309.781 399.956 310.02 400.195C310.259 400.432 310.262 400.82 310.023 401.059C307.766 403.332 305.433 405.578 303.092 407.735C302.974 407.843 302.827 407.895 302.677 407.895H302.68Z" fill="black"/>
<path d="M243.86 432.604C243.626 432.604 243.405 432.47 243.303 432.247C243.163 431.94 243.297 431.577 243.605 431.438C269.178 419.812 291.609 402.389 310.28 379.653C310.493 379.393 310.879 379.354 311.14 379.569C311.4 379.784 311.439 380.168 311.224 380.428C292.437 403.308 269.856 420.845 244.112 432.549C244.03 432.586 243.944 432.604 243.86 432.604Z" fill="black"/>
<path d="M224.397 458.488C223.436 458.488 222.5 458.193 221.699 457.629C220.672 456.906 219.989 455.826 219.773 454.589C219.558 453.352 219.839 452.104 220.561 451.076C221.284 450.049 222.364 449.366 223.601 449.151C224.838 448.938 226.086 449.216 227.114 449.939C229.234 451.431 229.743 454.371 228.251 456.491C227.529 457.518 226.449 458.201 225.212 458.417C224.941 458.464 224.668 458.488 224.397 458.488ZM224.413 450.301C224.213 450.301 224.011 450.32 223.811 450.354C222.894 450.514 222.096 451.019 221.56 451.78C221.024 452.54 220.816 453.465 220.977 454.381C221.134 455.298 221.641 456.097 222.403 456.633C223.162 457.169 224.087 457.376 225.001 457.216C225.918 457.056 226.717 456.551 227.253 455.79C228.359 454.221 227.981 452.043 226.41 450.94C225.816 450.522 225.125 450.304 224.413 450.304V450.301Z" fill="black"/>
<path d="M290.49 429.357C290.461 430.19 290.311 430.946 290.054 431.713C289.799 432.47 289.426 433.211 288.885 433.842C288.614 434.157 288.312 434.446 287.978 434.698C287.8 434.816 287.652 434.942 287.442 435.05L287.122 435.205L286.801 435.307C285.947 435.544 285.162 435.51 284.4 435.505C283.641 435.489 282.902 435.457 282.19 435.489C281.481 435.52 280.79 435.617 280.207 435.872C279.09 436.303 278.452 437.711 277.782 439.028C277.443 439.698 277.099 440.391 276.655 441.058C276.211 441.718 275.641 442.388 274.826 442.795C274.369 443 273.883 443.066 273.458 443.039C273.027 443.021 272.627 442.947 272.241 442.858C271.474 442.677 270.757 442.435 270.05 442.23C269.351 442.033 268.637 441.841 268.025 441.875C267.452 441.886 266.971 442.249 266.551 442.779C266.141 443.318 265.813 443.964 265.495 444.637C265.334 444.973 265.171 445.317 264.985 445.664C264.793 446.008 264.604 446.371 264.228 446.71C264.042 446.878 263.75 446.865 263.582 446.675C263.414 446.489 263.427 446.202 263.611 446.032L263.627 446.016C263.808 445.848 263.989 445.538 264.144 445.225C264.305 444.907 264.452 444.568 264.607 444.224C264.914 443.536 265.24 442.824 265.723 442.151C265.978 441.823 266.262 441.495 266.643 441.237C267.011 440.99 267.512 440.806 267.956 440.796C268.85 440.748 269.609 440.977 270.35 441.169C271.085 441.374 271.795 441.605 272.488 441.762C273.177 441.925 273.875 441.978 274.317 441.768C274.853 441.495 275.302 440.993 275.683 440.41C276.066 439.826 276.39 439.169 276.718 438.5C277.049 437.827 277.377 437.133 277.819 436.456C278.045 436.119 278.289 435.78 278.612 435.478L278.857 435.252L279.143 435.058C279.335 434.913 279.534 434.845 279.731 434.751C280.533 434.414 281.358 434.32 282.141 434.291C282.926 434.262 283.691 434.301 284.429 434.322C285.159 434.335 285.9 434.356 286.499 434.201L286.717 434.141L286.906 434.054C287.032 433.999 287.18 433.881 287.316 433.799C287.587 433.608 287.831 433.382 288.057 433.132C288.942 432.131 289.452 430.705 289.573 429.341V429.304C289.599 429.052 289.82 428.866 290.072 428.889C290.316 428.91 290.498 429.12 290.49 429.362V429.357Z" fill="black"/>
<path d="M176.729 499.687C176.054 486.281 174.93 473.505 173.065 465.166C170.049 451.694 162.758 437.113 162.758 437.113L59.2386 467.294C57.1947 473.124 56.2279 485.963 55.9047 499.687H176.732H176.729Z" fill="white"/>
<path d="M176.729 500.297C176.406 500.297 176.136 500.042 176.12 499.716C175.34 484.216 174.113 472.635 172.468 465.297C169.799 453.372 163.683 440.415 162.435 437.84L59.714 467.788C57.9906 473 56.8846 484.016 56.5141 499.698C56.5062 500.034 56.2251 500.32 55.8888 500.294C55.5499 500.286 55.2846 500.005 55.2925 499.669C55.5578 488.432 56.3591 473.66 58.6632 467.086C58.7288 466.9 58.8786 466.758 59.0678 466.703L162.587 436.522C162.874 436.438 163.173 436.572 163.304 436.834C163.378 436.981 170.663 451.636 173.661 465.027C175.319 472.433 176.556 484.082 177.339 499.65C177.355 499.987 177.097 500.276 176.758 500.292C176.748 500.292 176.737 500.292 176.727 500.292L176.729 500.297Z" fill="black"/>
<path d="M158.176 472.07C150.838 472.07 144.937 468.631 141.727 462.079C141.577 461.777 141.703 461.409 142.005 461.262C142.308 461.115 142.675 461.238 142.823 461.54C147.402 470.877 157.432 473.407 169.657 468.31C169.969 468.179 170.327 468.326 170.455 468.639C170.587 468.951 170.437 469.309 170.127 469.438C165.889 471.206 161.854 472.067 158.179 472.067L158.176 472.07Z" fill="black"/>
<path d="M110.645 493.025C110.453 493.025 110.264 492.933 110.143 492.765C106.149 487.069 106.517 478.36 106.533 477.992C106.549 477.664 106.819 477.409 107.143 477.409C107.153 477.409 107.161 477.409 107.171 477.409C107.508 477.424 107.768 477.711 107.752 478.047C107.747 478.134 107.392 486.712 111.141 492.061C111.336 492.336 111.267 492.717 110.991 492.912C110.884 492.985 110.763 493.022 110.642 493.022L110.645 493.025Z" fill="black"/>
<path d="M230.44 191.925L216.403 182.58C214.167 181.09 211.151 181.792 209.772 184.096C175.794 240.82 119.706 263.637 101.783 269.713C98.2288 270.919 94.3905 271.014 90.7755 270.008L84.0551 268.134L59.8429 274.842L56.1044 279.868C51.5278 286.02 45.5168 290.965 38.5915 294.27L34.6507 296.151C34.6507 296.151 17.8051 306.578 8.82798 319.417C1.05936 330.528 -6.11552 400.64 17.0905 430.472C21.8063 436.535 26.9241 424.45 34.1069 421.71C42.0068 418.696 47.989 416.051 53.2644 408.151C53.824 407.313 58.9417 460.653 58.9417 460.653C106.807 479.169 161.555 432.284 161.555 432.284C160.346 430.172 149.105 362.763 146.301 341.594C144.136 325.229 151.233 308.969 164.773 299.495C215.031 264.336 229.502 210.305 232.423 196.796C232.831 194.917 232.042 192.989 230.443 191.922L230.44 191.925Z" fill="white"/>
<path d="M82.7939 465.552C74.8098 465.552 66.6734 464.299 58.7183 461.223C58.5028 461.139 58.3531 460.941 58.3294 460.71C56.5797 442.467 53.8895 415.727 52.9752 409.632C47.8732 416.707 42.2089 419.272 34.3221 422.28C31.6318 423.307 29.1465 425.803 26.9528 428.004C24.3361 430.632 22.0741 432.904 19.7149 432.754C18.5694 432.683 17.5527 432.058 16.6069 430.844C3.01642 413.379 0.825337 383.928 0.728131 367.928C0.586262 344.344 4.47714 324.566 8.32073 319.068C17.2663 306.273 34.154 295.736 34.3221 295.633C34.3405 295.62 34.3615 295.609 34.3799 295.602L38.3207 293.72C45.1304 290.468 51.1073 285.552 55.6076 279.505L59.3461 274.479C59.4276 274.369 59.5432 274.29 59.6745 274.256L83.8868 267.548C83.9919 267.519 84.1075 267.519 84.2126 267.548L90.9329 269.422C94.456 270.404 98.1393 270.304 101.581 269.138C118.222 263.497 175.169 240.669 209.243 183.785C210.003 182.519 211.209 181.642 212.646 181.318C214.07 180.998 215.522 181.266 216.736 182.072L230.773 191.417C232.597 192.631 233.474 194.793 233.014 196.927C231.619 203.379 227.253 220.522 216.886 240.312C204.005 264.897 186.587 284.98 165.12 299.997C151.734 309.36 144.754 325.268 146.903 341.512C149.835 363.659 160.9 429.615 162.083 431.987C162.209 432.237 162.159 432.565 161.946 432.749C161.809 432.867 147.972 444.632 128.455 453.964C116.159 459.843 99.8286 465.552 82.7886 465.552H82.7939ZM59.509 460.219C83.9315 469.493 110.175 461.351 127.929 452.863C145.684 444.372 158.683 433.871 160.837 432.084C158.909 425.459 148.408 362.204 145.692 341.672C143.482 324.974 150.657 308.622 164.418 298.993C213.915 264.367 228.522 211.917 231.822 196.667C232.176 195.027 231.501 193.364 230.098 192.432L216.061 183.087C215.126 182.464 214.012 182.259 212.916 182.506C211.81 182.756 210.878 183.431 210.294 184.408C176.007 241.649 118.718 264.614 101.978 270.291C98.3022 271.536 94.3719 271.641 90.6072 270.593L84.0497 268.767L60.2026 275.372L56.5902 280.23C51.9716 286.438 45.8371 291.482 38.8488 294.819L34.9369 296.687C34.1645 297.17 17.9547 307.421 9.32169 319.766C1.33501 331.19 -5.08586 400.976 17.5658 430.096C18.2831 431.018 19.0082 431.488 19.7832 431.535C21.6222 431.651 23.7739 429.457 26.0806 427.143C28.361 424.852 30.9461 422.256 33.8807 421.137C41.9594 418.053 47.6367 415.459 52.7466 407.809C52.8911 407.594 53.1722 407.483 53.4218 407.546C53.9683 407.683 54.0523 407.704 55.0349 416.342C55.5315 420.706 56.1751 426.78 56.9501 434.394C58.1455 446.124 59.2884 457.975 59.5064 460.216L59.509 460.219Z" fill="black"/>
<path d="M215.898 185.398C215.368 184.434 215.365 183.27 215.922 182.319C216.658 181.061 217.89 178.93 219.666 175.793C222.797 170.263 225.687 160.403 229.783 156.315C233.879 152.227 249.293 138.999 252.666 139.483C256.039 139.966 255.798 143.812 252.424 147.178C249.051 150.543 244.477 154.392 244.477 154.392C244.477 154.392 247.367 153.189 250.74 155.834C254.114 158.48 251.576 160.913 253.438 162.153C255.826 163.742 256.223 166.425 255.317 167.977C253.247 171.519 247.94 167.806 247.073 173.873C246.468 178.087 242.909 181.941 234.63 186.743C232.41 188.031 230.461 189.741 228.856 191.743C228.191 192.57 227.13 192.991 226.081 192.804C223.546 192.352 218.872 190.789 215.901 185.398H215.898Z" fill="white"/>
<path d="M226.575 193.459C226.373 193.459 226.17 193.44 225.968 193.406C223.336 192.936 218.454 191.307 215.359 185.695C214.724 184.542 214.737 183.131 215.391 182.014C216.108 180.79 217.338 178.665 219.132 175.496C220.251 173.518 221.339 170.986 222.487 168.303C224.536 163.519 226.656 158.572 229.349 155.884C231.945 153.294 248.089 138.863 252.508 138.863C252.592 138.863 252.674 138.868 252.75 138.879C254.15 139.078 255.13 139.819 255.511 140.967C256.126 142.814 255.106 145.36 252.852 147.611C250.719 149.742 248.084 152.083 246.439 153.512C247.682 153.559 249.34 153.964 251.113 155.356C253.283 157.059 253.273 158.759 253.262 159.999C253.257 160.902 253.273 161.315 253.772 161.646C256.417 163.406 256.903 166.464 255.839 168.287C254.807 170.053 253.094 170.279 251.581 170.478C249.639 170.733 248.105 170.936 247.671 173.962C247.022 178.491 243.213 182.472 234.929 187.274C232.804 188.506 230.918 190.138 229.326 192.127C228.643 192.978 227.626 193.461 226.575 193.461V193.459ZM216.431 185.104C219.282 190.274 223.767 191.772 226.184 192.203C226.998 192.35 227.841 192.027 228.372 191.362C230.059 189.255 232.061 187.524 234.315 186.215C242.238 181.62 245.869 177.906 246.458 173.789C247.022 169.845 249.458 169.525 251.418 169.267C252.831 169.081 254.05 168.921 254.781 167.673C255.566 166.327 255.146 164.031 253.091 162.665C252.022 161.953 252.03 160.91 252.035 159.991C252.043 158.84 252.051 157.65 250.354 156.318C247.33 153.946 244.805 154.918 244.7 154.96C244.419 155.073 244.101 154.965 243.946 154.707C243.791 154.45 243.846 154.119 244.075 153.927C244.119 153.888 248.67 150.057 251.985 146.747C253.851 144.884 254.802 142.717 254.347 141.353C254.113 140.649 253.514 140.224 252.571 140.087C252.526 140.079 252.477 140.077 252.424 140.077C249.284 140.077 235.171 151.794 230.208 156.746C227.684 159.266 225.611 164.102 223.606 168.781C222.445 171.495 221.347 174.057 220.191 176.095C218.394 179.272 217.159 181.402 216.442 182.629C215.998 183.389 215.993 184.313 216.426 185.104H216.431Z" fill="black"/>
<path d="M78.3591 287.541C78.3591 287.541 71.9356 292.299 63.1319 287.541C59.5248 285.592 60.594 278.401 59.3408 274.497L53.8185 257.273L78.4012 249.415L86.1593 273.609C87.9799 279.289 84.0496 285.723 78.3618 287.541H78.3591Z" fill="white"/>
<path d="M71.0161 290.284C68.6727 290.284 65.8984 289.732 62.8403 288.077C60.1632 286.629 59.8138 282.901 59.4749 279.294C59.312 277.566 59.1596 275.934 58.7576 274.681L53.2353 257.457C53.1853 257.302 53.1985 257.134 53.2747 256.992C53.3482 256.847 53.477 256.74 53.632 256.69L78.2147 248.832C78.5378 248.729 78.8793 248.905 78.9818 249.229L86.7399 273.422C87.6621 276.294 87.2575 279.457 85.605 282.329C84.0339 285.056 81.4986 287.152 78.6376 288.095C78.0964 288.471 75.2643 290.286 71.0161 290.286V290.284ZM54.5856 257.667L59.9215 274.308C60.3655 275.687 60.5231 277.384 60.6913 279.181C60.9986 282.468 61.3165 285.865 63.4209 287.002C71.7859 291.524 77.9335 287.094 77.994 287.05C78.0491 287.01 78.1069 286.979 78.1726 286.958C80.784 286.122 83.1091 284.212 84.5436 281.716C86.0227 279.147 86.3879 276.333 85.5734 273.793L78.0018 250.182L54.583 257.667H54.5856Z" fill="black"/>
<path d="M83.2219 258.13L56.8344 266.563L49.4782 243.617C46.4911 234.304 51.6325 224.339 60.9591 221.357L72.1903 217.768C75.3141 216.77 78.6585 218.488 79.6594 221.609L88.2451 248.388C89.5508 252.463 87.302 256.824 83.2219 258.13Z" fill="white"/>
<path d="M56.8346 267.175C56.5772 267.175 56.3355 267.01 56.254 266.75L48.8979 243.804C47.403 239.143 47.8181 234.183 50.0591 229.832C52.3027 225.482 56.1069 222.266 60.7754 220.774L72.0067 217.185C75.4457 216.087 79.1421 217.986 80.2429 221.42L88.8312 248.199C89.5143 250.324 89.3252 252.589 88.3006 254.575C87.276 256.561 85.5394 258.027 83.4113 258.708L73.8694 261.758C70.6747 262.78 67.3644 263.108 64.0279 262.733C63.6916 262.696 63.4499 262.394 63.4893 262.057C63.5287 261.721 63.8282 261.482 64.1645 261.519C67.3276 261.874 70.4671 261.561 73.4963 260.594L83.0383 257.544C84.8563 256.963 86.3407 255.71 87.2129 254.016C88.0878 252.321 88.248 250.387 87.6648 248.572L79.0765 221.793C78.1806 219 75.1751 217.453 72.3745 218.349L61.1432 221.938C56.7873 223.33 53.2354 226.333 51.1415 230.392C49.0476 234.451 48.6614 239.083 50.0565 243.431L57.4126 266.377C57.5151 266.697 57.339 267.041 57.0185 267.144C56.9555 267.165 56.8924 267.173 56.832 267.173L56.8346 267.175Z" fill="black"/>
<path d="M53.9897 257.018L47.5241 250.907C45.3672 248.869 43.7068 246.36 42.6954 243.572C42.6796 243.528 42.6638 243.483 42.6481 243.438C41.1532 239.293 40.3729 234.905 40.6094 230.507C41.3607 216.544 50.9579 211.058 60.5603 211.242C60.5866 211.242 60.6102 211.242 60.6365 211.242C64.1096 211.308 67.3989 209.705 69.498 206.941L71.7627 203.962C73.3363 201.892 76.4522 201.789 78.1047 203.797C80.2196 206.363 77.5977 211.767 76.4522 216.633L79.6311 219.384L57.9305 225.941C56.0941 226.501 54.9276 228.303 55.1693 230.205L56.4093 239.928C56.475 240.451 56.1624 240.948 55.6632 241.113L53.4826 241.838L49.3973 241.331L53.9897 257.018Z" fill="black"/>
<path d="M53.485 241.838L51.5592 240.724C49.975 239.81 47.9468 240.375 47.0693 241.978C46.4625 243.089 46.5544 244.45 47.3058 245.467L48.6351 247.264C49.7517 248.774 51.2991 249.917 53.0725 250.542L55.1953 251.291L53.485 241.836V241.838Z" fill="white"/>
<path d="M13.1627 314.704L34.3195 296.603L39.3349 300.31L18.1807 317.759L13.1627 314.704Z" fill="black"/>
<path d="M68.0083 305.401C67.9163 305.401 67.8218 305.38 67.7377 305.338C58.0354 300.554 51.6435 295.097 48.1966 288.66C48.0363 288.363 48.1493 287.993 48.4462 287.833C48.743 287.672 49.1135 287.785 49.2737 288.082C52.5288 294.164 58.5661 299.361 67.7167 303.961L74.2347 289.898C74.3766 289.59 74.7392 289.459 75.0465 289.601C75.3513 289.743 75.4853 290.105 75.3434 290.413L68.5626 305.046C68.4943 305.196 68.3682 305.311 68.2106 305.364C68.1449 305.388 68.0766 305.398 68.0083 305.398V305.401Z" fill="black"/>
<path d="M90.4918 295.764C90.3788 295.764 90.2658 295.732 90.166 295.669L78.031 288.056C77.7446 287.877 77.6579 287.499 77.8392 287.212C78.0178 286.926 78.3961 286.842 78.6799 287.021L90.2133 294.259C90.6836 293.184 91.1407 292.165 91.5768 291.19C94.6427 284.328 96.6709 279.793 96.3031 273.777C96.2821 273.441 96.5396 273.152 96.8759 273.131C97.22 273.104 97.5011 273.367 97.5221 273.703C97.9057 280.019 95.7199 284.914 92.6907 291.689C92.1705 292.856 91.6188 294.088 91.0487 295.399C90.9778 295.562 90.8386 295.685 90.6704 295.738C90.6126 295.756 90.5496 295.764 90.4891 295.764H90.4918Z" fill="black"/>
<path d="M100.94 270.942L102.051 276.407L129.012 265.533L125.678 260.158L100.94 270.942Z" fill="black"/>
<path d="M77.6452 287.659L75.504 289.443L74.4321 298.722L80.501 303.719L85.1406 301.935L84.426 292.656L77.6452 287.659Z" fill="black"/>
<path d="M80.5009 303.719L81.5701 319.782L99.4167 404.724L112.978 412.577L119.044 397.943L93.7051 314.427L85.1405 301.935L80.5009 303.719Z" fill="black"/>
<path d="M1.40356 346.663L12.1094 346.306L11.7521 364.51L5.32859 372.005L0.688965 366.294L1.40356 346.663Z" fill="black"/>
<path d="M108.577 323.886L130.585 314.042L133.977 322.861L125.946 332.156H113.099L108.577 323.886Z" fill="black"/>
<path d="M70.7432 335.127L48.8534 345.121L51.2336 352.259L68.3656 351.308L74.0745 342.266L70.7432 335.127Z" fill="black"/>
<path d="M222.548 211.536C222.516 211.536 222.485 211.536 222.453 211.528C211.768 209.865 206.204 204.172 202.552 199.399C202.347 199.131 202.397 198.747 202.665 198.542C202.933 198.337 203.317 198.387 203.521 198.655C207.037 203.247 212.388 208.722 222.642 210.32C222.976 210.372 223.204 210.685 223.152 211.019C223.105 211.321 222.844 211.536 222.548 211.536Z" fill="black"/>
<path d="M75.9794 212.829L78.1915 196.454C78.2993 195.66 77.8395 194.867 77.0723 194.638C64.9373 191.068 24.8594 222.781 29.3441 229.483L41.24 236.382L75.9794 212.826V212.829Z" fill="white"/>
<path d="M41.2398 236.994C41.1348 236.994 41.027 236.968 40.9325 236.913L29.0365 230.014C28.9551 229.966 28.8868 229.903 28.8342 229.824C27.8122 228.298 28.5347 225.839 30.9754 222.515C38.9673 211.642 66.8603 190.997 77.243 194.055C78.2781 194.36 78.9454 195.426 78.7956 196.538L76.5835 212.913C76.5599 213.086 76.4653 213.239 76.3208 213.336L41.5814 236.892C41.4789 236.962 41.3581 236.997 41.2372 236.997L41.2398 236.994ZM29.7853 229.034L41.2162 235.662L75.4118 212.474L77.5871 196.37C77.6581 195.852 77.3612 195.358 76.8988 195.224C67.6905 192.513 40.4097 211.741 31.9606 223.238C29.9849 225.926 29.2178 227.975 29.7826 229.034H29.7853Z" fill="black"/>
<path d="M53.1363 234.244C49.0142 237.522 44.8895 239.141 40.7648 239.955L39.0992 234.483C42.2912 231.456 64.1626 214.427 75.7407 212.475L78.205 219.389L53.1363 234.246V234.244Z" fill="white"/>
<path d="M40.7647 240.564C40.502 240.564 40.2603 240.394 40.1815 240.131L38.5159 234.659C38.4476 234.438 38.5132 234.196 38.6814 234.036C41.7158 231.162 63.687 213.885 75.6434 211.868C75.9298 211.818 76.2214 211.986 76.3212 212.264L78.7855 219.179C78.8827 219.455 78.7724 219.76 78.5202 219.909L53.4856 234.745C49.734 237.719 45.6119 239.619 40.883 240.551C40.8436 240.559 40.8041 240.562 40.7647 240.562V240.564ZM39.7953 234.669L41.1877 239.24C45.5594 238.302 49.248 236.553 52.7579 233.763C52.7789 233.744 52.8026 233.729 52.8262 233.715L77.4614 219.113L75.3387 213.163C64.0443 215.435 43.5233 231.322 39.7927 234.666L39.7953 234.669Z" fill="black"/>
<path d="M51.5911 233.765C70.8143 230.174 94.7874 228.369 98.1818 222.634L79.6259 218.599C76.912 216.833 58.963 224.326 51.5937 233.765H51.5911Z" fill="black"/>
<path d="M67.9638 403.881C64.4959 400.413 58.871 400.413 55.4005 403.881L51.3021 407.979C50.9999 407.467 50.6032 406.965 50.2565 406.479C50.3011 406.269 50.2565 374.044 50.2565 374.044C50.2565 372.31 48.9875 370.77 47.2562 370.77H46.4391C44.4871 370.77 42.8898 372.368 42.8898 374.32L42.0701 399.423C41.2504 398.629 39.6137 397.888 39.6137 397.581L38.794 368.771C38.794 367.092 37.7484 365.524 36.1379 365.054C33.7971 364.368 31.4273 366.154 31.4273 368.453C31.4273 368.453 31.2014 397.105 31.0175 397.105C29.9981 397.105 29.9929 397.26 29.1758 397.379L28.1538 376.14C28.1538 374.462 27.1082 372.893 25.4977 372.423C23.1569 371.737 20.7872 373.524 20.7872 375.823L19.9675 400.04C19.1478 400.699 19.5577 400.35 17.9209 401.267L16.694 382.866C16.694 380.953 15.1518 379.28 13.2419 379.374C11.3818 379.466 10.1444 381.019 10.1444 382.916L11.9861 411.702C13.0081 420.212 14.0957 425.731 14.8523 428.075C16.8989 434.419 22.0614 437.089 31.3275 438.035C39.9815 438.917 50.0857 432.331 51.1733 422.334C51.2784 421.354 51.6331 420.424 52.2426 419.649C56.5801 414.156 62.1813 407.039 67.8403 404.522C68.0951 404.409 68.1608 404.083 67.9638 403.886V403.881Z" fill="white"/>
<path d="M32.9065 438.721C32.3547 438.721 31.8057 438.694 31.2645 438.639C21.2417 437.617 16.3183 434.609 14.2717 428.259C13.3654 425.448 12.2856 419.287 11.3818 411.773L9.53754 382.956C9.53754 380.618 11.0823 378.87 13.213 378.763C14.2402 378.71 15.2333 379.086 16.0031 379.819C16.8306 380.607 17.3062 381.716 17.3062 382.864L18.47 400.272C18.5987 400.203 18.6986 400.153 18.7826 400.111C19.0559 399.972 19.1058 399.946 19.3685 399.736L20.1777 375.799C20.1777 374.538 20.7924 373.343 21.867 372.539C22.9756 371.709 24.3628 371.451 25.6712 371.835C27.4944 372.368 28.766 374.139 28.766 376.138L29.7538 396.633C29.9482 396.583 30.1479 396.538 30.4579 396.512C30.5814 393.612 30.739 378.605 30.8178 368.446C30.8178 367.169 31.4326 365.974 32.5071 365.17C33.6158 364.339 35.003 364.082 36.3113 364.466C38.1346 364.999 39.4061 366.77 39.4061 368.771L40.2206 397.379C40.3729 397.497 40.6724 397.686 40.901 397.831C41.0954 397.952 41.2977 398.081 41.4974 398.215L42.2777 374.304C42.2777 372.032 44.143 370.167 46.4365 370.167H47.2536C49.245 370.167 50.866 371.908 50.866 374.052C50.9001 399.841 50.8817 405.153 50.866 406.288C50.9238 406.367 50.9789 406.443 51.0367 406.522C51.1576 406.685 51.2811 406.853 51.3993 407.021L54.967 403.453C58.6687 399.751 64.6929 399.751 68.3946 403.453C68.6284 403.687 68.7309 404.018 68.6705 404.341C68.6101 404.667 68.392 404.943 68.0846 405.079C62.5859 407.525 57.145 414.422 52.7707 419.962L52.7181 420.031C52.198 420.688 51.8748 421.507 51.7776 422.403C50.6899 432.431 41.3056 438.728 32.9065 438.728V438.721ZM13.3969 379.979C13.3549 379.979 13.3154 379.979 13.2734 379.982C11.7917 380.055 10.7566 381.261 10.7566 382.914L12.5982 411.66C13.4888 419.067 14.5502 425.143 15.4356 427.883C17.3088 433.695 21.9327 436.459 31.3906 437.423C39.5848 438.258 49.513 431.95 50.5665 422.264C50.6873 421.142 51.1024 420.104 51.7645 419.266L51.817 419.198C56.1992 413.647 61.6348 406.761 67.3043 404.089C64.065 401.086 58.984 401.16 55.834 404.31L51.7356 408.408C51.6016 408.542 51.4124 408.605 51.2259 408.581C51.0367 408.558 50.8712 408.447 50.7766 408.285C50.5717 407.938 50.309 407.58 50.0542 407.236C49.9543 407.1 49.8545 406.966 49.7599 406.832C49.6758 406.713 49.6364 406.566 49.6496 406.422C49.6811 405.644 49.6627 384.926 49.6496 374.042C49.6496 372.573 48.5777 371.378 47.2588 371.378H46.4418C44.8208 371.378 43.5046 372.697 43.5046 374.315L42.6849 399.436C42.677 399.678 42.5272 399.891 42.3039 399.983C42.078 400.072 41.8232 400.022 41.6498 399.854C41.2977 399.512 40.7434 399.163 40.2547 398.856C39.4508 398.348 39.0094 398.07 39.0094 397.573L38.1897 368.779C38.1897 367.3 37.2781 366.013 35.9724 365.629C35.0345 365.356 34.0414 365.54 33.2427 366.139C32.4808 366.709 32.0421 367.55 32.0421 368.443C32.0421 368.448 31.9843 375.613 31.9055 382.777C31.8661 386.361 31.8214 389.944 31.7741 392.629C31.7146 396.015 31.4641 397.707 31.0228 397.707C30.4605 397.707 30.2661 397.757 30.0008 397.826C29.8116 397.873 29.6014 397.928 29.2678 397.975C29.097 397.999 28.9236 397.952 28.7923 397.841C28.6609 397.731 28.5795 397.571 28.5716 397.4L27.5496 376.162C27.5496 374.67 26.638 373.382 25.3322 373.001C24.3943 372.725 23.4013 372.912 22.6026 373.508C21.8407 374.081 21.402 374.919 21.402 375.812L20.5823 400.051C20.577 400.23 20.4929 400.395 20.3537 400.505C19.823 400.934 19.7573 400.978 19.337 401.191C19.1294 401.296 18.8089 401.462 18.2204 401.79C18.0391 401.893 17.8158 401.895 17.6319 401.793C17.448 401.693 17.3272 401.506 17.314 401.296L16.0871 382.895C16.0871 382.041 15.7482 381.253 15.1624 380.696C14.6685 380.226 14.0458 379.971 13.3995 379.971L13.3969 379.979ZM40.2258 397.537V397.56C40.2258 397.56 40.2258 397.545 40.2258 397.537Z" fill="black"/>
<path d="M58.335 469.708C98.2894 468.831 134.069 459.712 165.175 441.337L162.763 432.654C162.453 431.535 161.187 431.004 160.165 431.548C129.109 448.118 94.5247 455.968 58.4874 458.829C58.4033 458.837 58.3376 458.905 58.3376 458.992V469.705L58.335 469.708Z" fill="black"/>
<path d="M107.761 466.017C107.645 466.017 107.532 465.986 107.435 465.923C107.298 465.836 107.201 465.699 107.164 465.542L103.599 449.715C103.525 449.387 103.73 449.059 104.061 448.985L116.133 446.266C116.291 446.232 116.457 446.258 116.593 446.345C116.73 446.431 116.827 446.568 116.864 446.726L120.429 462.552C120.502 462.88 120.298 463.209 119.966 463.282L107.895 466.001C107.85 466.012 107.805 466.017 107.761 466.017ZM104.926 450.041L108.223 464.675L119.102 462.224L115.805 447.59L104.926 450.041Z" fill="black"/>
</svg>
