<svg width="507" height="501" viewBox="0 0 507 501" fill="none" xmlns="http://www.w3.org/2000/svg">
<path d="M428.982 43.663C428.982 43.663 287.341 67.5349 170.367 0.693359C170.367 0.693359 163.206 50.0294 100.343 88.224C37.48 126.419 0.875977 122.441 0.875977 122.441C0.875977 122.441 2.46739 194.057 27.9307 265.673C53.3941 337.29 174.346 504.394 398.743 498.028C398.743 498.028 491.845 424.025 499.006 333.311C506.167 242.598 506.167 237.823 495.823 205.197C485.479 172.572 428.982 43.663 428.982 43.663Z" fill="white"/>
<path d="M372.386 468.821C308.19 466.611 245.485 448.528 190.54 415.048C132.154 379.472 84.9523 326.961 54.8985 265.617C37.7291 230.572 26.1515 192.964 20.7973 154.307C20.6058 152.924 18.1764 152.836 18.3711 154.371C27.2278 224.318 56.6438 291.119 102.049 345.056C144.662 395.676 201.266 433.708 263.87 454.963C298.96 466.876 336.057 473.766 373.147 474.3C377.104 474.357 375.897 468.941 372.386 468.821Z" fill="#2B2A2A"/>
<path d="M178.23 40.4332C161.072 67.7209 138.251 91.0863 111.49 109.051C98.0691 118.06 83.73 125.649 68.7617 131.747C53.8559 137.82 38.5281 141.621 22.9313 145.383C21.8214 145.651 22.4897 147.341 23.4753 147.241C55.1871 144.018 86.7393 130.141 113.16 112.785C140.604 94.7576 164.096 71.0061 181.667 43.2651C183.03 41.114 179.58 38.2853 178.23 40.4332Z" fill="#2B2A2A"/>
<path d="M455.115 169.165C443.775 133.444 428.792 98.8369 411.928 65.397C412.523 63.7438 410.998 61.1121 408.945 61.4224C372.128 66.9829 335.801 69.3497 298.677 64.9491C261.839 60.5821 226.268 50.6233 192.011 36.5109C189.732 35.5721 188.608 38.6486 190.732 39.6593C224.738 55.8446 261.835 65.8589 299.199 70.229C335.639 74.4913 374.034 74.3404 410.053 66.6875C436.942 124.959 461.49 185.185 468.005 249.61C473.468 303.641 464.862 359.533 437.729 407.085C430.397 419.934 421.667 432.029 411.654 442.925C401.481 453.996 389.895 462.751 378.07 471.907C375.672 473.763 378.604 477.245 381.064 475.899C403.861 463.423 422.756 441.399 436.544 419.766C450.812 397.382 460.83 372.542 467.019 346.765C481.182 287.777 473.279 226.379 455.115 169.165Z" fill="#2B2A2A"/>
<path d="M257.802 118.873C235.473 92.7527 212.616 66.8508 188.997 41.8877C188.359 41.2124 187.148 41.8479 187.82 42.6553C209.802 69.0308 232.825 94.7474 256.112 119.976C257.026 120.967 258.774 120.011 257.802 118.873Z" fill="#2B2A2A"/>
<path d="M388.833 461.454C381.121 415.535 369.48 369.994 354.552 325.579C353.438 325.915 352.314 326.206 351.176 326.455C358.085 347.519 364.302 368.801 369.795 390.25C375.839 413.853 380.757 437.65 385.37 461.566C385.763 463.602 389.223 463.78 388.833 461.454Z" fill="#2B2A2A"/>
<path d="M172.328 156.433C127.683 167.099 81.2897 169.443 35.9588 161.731C35.1513 161.593 35.106 162.748 35.84 162.877C81.4241 170.93 128.253 169.943 173.165 158.38C174.475 158.043 173.505 156.151 172.328 156.433Z" fill="#2B2A2A"/>
<path d="M408.025 63.3322C399.081 68.6809 390.968 75.607 382.132 81.2105C372.975 87.0181 363.583 92.4215 353.952 97.4037C343.295 102.917 332.383 107.925 321.29 112.495C321.7 113.073 322.092 113.652 322.45 114.234C333.003 110.051 343.373 105.41 353.534 100.293C363.224 95.4136 372.743 90.165 382.043 84.577C391.41 78.9485 401.887 73.3348 410.078 66.0695C411.589 64.7282 409.729 62.3129 408.025 63.3322Z" fill="#2B2A2A"/>
<path d="M173.505 431.119C94.1553 385.226 35.7514 306 13.8547 217.113C7.71575 192.192 5.06679 166.917 3.89042 141.327C3.8615 140.697 2.69686 140.493 2.66873 141.213C0.887378 186.688 12.393 233.374 30.5153 274.846C48.9697 317.078 75.7118 355.57 109.076 387.383C128.121 405.544 149.343 421.281 172.227 434.266C174.389 435.494 175.504 432.275 173.505 431.119Z" fill="#2B2A2A"/>
<path d="M386.292 496.376C370.174 494.867 354.029 495.018 337.915 492.917C321.528 490.781 305.283 487.565 289.315 483.309C257.266 474.768 226.079 462.261 197.174 445.967C196.403 445.532 196.031 446.662 196.722 447.079C225.29 464.323 255.74 477.796 287.911 486.752C304.182 491.283 320.758 494.724 337.488 497.044C353.334 499.242 370.418 501.644 386.411 500.309C388.77 500.112 388.518 496.585 386.292 496.376Z" fill="#2B2A2A"/>
<path d="M165.288 16.866C134.569 75.7435 73.3036 113.227 8.92806 123.598C8.03699 123.742 8.31448 125.005 9.14302 124.934C76.1651 119.25 135.399 76.1757 169.449 19.5384C171.096 16.7988 166.818 13.9349 165.288 16.866Z" fill="#2B2A2A"/>
<path d="M424.961 42.1106C384.61 47.4921 344.565 48.688 304.14 42.9837C263.66 37.2715 225.773 24.4745 187.701 10.1026C186.844 9.779 186.482 10.8365 187.229 11.2625C222.789 31.5077 264.386 42.5553 304.645 48.3136C344.698 54.043 386.583 54.5144 426.501 47.3718C429.634 46.8121 427.775 41.7354 424.961 42.1106Z" fill="#2B2A2A"/>
<path d="M466.025 124.777C456.177 102.218 446.753 79.2157 435.59 57.2689C434.946 56.0035 432.846 56.3998 433.434 57.9247C442.278 80.8751 453.099 103.232 463.291 125.608C464.049 127.272 466.841 126.648 466.025 124.777Z" fill="#2B2A2A"/>
<path d="M502.032 225.639C496.791 196.837 486.726 169.181 472.412 143.673C472.054 143.035 470.906 143.247 471.284 144.016C493.607 189.451 504.802 240.548 501.834 291.174C499.053 338.612 483.592 384.977 457.857 424.896C443.549 447.091 426.172 467.252 406.248 484.588C403.523 486.96 407.322 491.67 409.875 489.424C484.162 424.075 519.768 323.116 502.032 225.639Z" fill="#2B2A2A"/>
<path d="M376.589 280.774C371.815 269.885 363.807 259.716 357.202 249.844C350.212 239.398 342.948 229.133 335.517 218.996C328.637 209.609 321.6 200.338 314.37 191.218C307.199 182.171 300.119 172.686 292.014 164.411C302.681 157.796 302.002 142.489 294.218 133.807C284.851 123.356 265.817 120.885 254.893 130.453C253.929 131.298 253.997 132.356 254.559 133.181C259.255 128.045 267.402 126.404 274.165 126.604C282.973 126.865 290.485 131.462 293.047 139.531C297.492 146.717 295.951 155.514 290.763 162.365C290.552 163.447 290.132 164.379 289.55 165.167C295.776 174.033 303.003 182.266 309.601 190.85C317.587 201.237 325.39 211.769 332.975 222.452C340.023 232.378 346.864 242.446 353.582 252.597C359.976 262.259 365.534 273.057 372.781 282.096C362.263 286.953 351.727 291.77 341.2 296.606C331.774 300.938 321.806 304.889 312.845 310.163C305.621 287.451 297.892 264.897 290.282 242.313C282.982 220.646 276.497 198.486 268.247 177.144C267.723 177.252 267.195 177.329 266.665 177.344C272.603 199.373 280.498 221.012 287.418 242.732C294.72 265.654 301.902 288.625 309.605 311.417C309.945 312.42 311.011 312.86 311.892 312.759C312.2 312.906 312.535 312.975 312.822 312.885C323.547 309.502 333.939 304.08 344.19 299.481C354.545 294.837 364.892 290.172 375.256 285.548C376.383 285.045 376.483 284.01 376.054 283.144C376.687 282.648 377.024 281.765 376.589 280.774Z" fill="#2B2A2A"/>
<path d="M272.149 184.249C270.994 180.051 269.704 175.482 267.719 171.479C269.041 170.076 267.179 167.095 265.09 167.572C250.664 170.867 241.121 145.007 251.566 136.061C252.048 135.648 251.39 134.822 250.865 135.117C235.156 143.944 248.114 175.609 264.749 172.55C265.594 176.724 267.263 180.903 268.801 184.739C269.526 186.545 272.779 186.537 272.149 184.249Z" fill="#2B2A2A"/>
<path d="M228.808 147.308C216.635 149.731 204.459 152.129 192.286 154.55C191.466 154.713 192.079 155.881 192.805 155.754C205.094 153.612 217.379 151.447 229.668 149.307C231.002 149.074 230.042 147.062 228.808 147.308Z" fill="#2B2A2A"/>
<path d="M248.828 117.99C236.683 122.282 228.33 133.071 226.183 145.634C226.049 146.42 227.33 146.765 227.519 145.925C230.195 134.028 238.671 124.915 249.865 120.399C251.406 119.778 250.264 117.483 248.828 117.99Z" fill="#2B2A2A"/>
<path d="M302.646 121.799C292.06 112.46 277.361 109.288 263.829 113.137C263.168 113.325 263.666 114.235 264.248 114.11C277.672 111.26 290.76 114.726 301.214 123.536C302.458 124.584 303.859 122.869 302.646 121.799Z" fill="#2B2A2A"/>
<path d="M312.434 117.483C310.887 118.06 309.373 118.712 307.851 119.352C307.022 119.7 307.639 120.949 308.413 120.659C309.959 120.077 311.509 119.51 313.029 118.866C313.906 118.496 313.256 117.176 312.434 117.483Z" fill="#2B2A2A"/>
<path d="M255.599 176.899C247.189 177.185 239.397 174.477 234.046 167.707C233.623 167.172 232.797 167.652 233.211 168.251C238.258 175.547 246.927 180.346 255.965 179.17C257.506 178.97 256.996 176.852 255.599 176.899Z" fill="#2B2A2A"/>
<path d="M298.211 330.651C285.881 285.868 272.898 241.27 260.463 196.516C260.296 195.915 259.221 195.864 259.409 196.551C271.598 241.239 283.238 286.077 295.533 330.738C295.955 332.272 298.689 332.39 298.211 330.651Z" fill="#2B2A2A"/>
<path d="M353.477 310.7C345.015 313.653 336.873 318.072 328.725 321.81C321.19 325.266 313.453 328.493 306.151 332.421C305.491 332.777 306.204 333.798 306.826 333.583C315.353 330.638 323.634 326.828 331.959 323.357C339.643 320.154 347.736 317.38 355.081 313.461C356.651 312.623 354.954 310.184 353.477 310.7Z" fill="#2B2A2A"/>
<path d="M400.602 291.037C388.728 295.342 376.88 301.317 365.679 307.166C364.893 307.577 365.742 308.811 366.481 308.547C378.425 304.268 390.919 299.604 402.192 293.773C403.75 292.967 402.066 290.506 400.602 291.037Z" fill="#2B2A2A"/>
<path d="M403.394 284.628C377.551 242.899 347.125 203.861 312.073 169.451C311.544 168.932 310.639 169.685 311.173 170.254C344.75 206.01 374.934 244.615 400.483 286.526C401.73 288.571 404.719 286.768 403.394 284.628Z" fill="#2B2A2A"/>
<path d="M305.513 130.972C304.953 130.453 304.104 131.167 304.595 131.792C311.141 140.11 312.603 151.192 306.74 160.326C305.621 162.068 308.34 163.911 309.442 162.061C315.353 152.135 314.107 138.936 305.513 130.972Z" fill="#2B2A2A"/>
<path d="M351.489 290.456C342.143 274.339 330.419 259.263 319.886 243.894C308.917 227.89 297.725 212.041 286.528 196.196C285.987 195.431 284.857 196.114 285.394 196.935C295.785 212.847 306.173 228.761 316.793 244.522C327.338 260.171 337.152 276.874 348.84 291.686C349.835 292.946 352.475 292.155 351.489 290.456Z" fill="#2B2A2A"/>
<path d="M289.904 165.496C286.847 173.506 283.961 181.556 281.259 189.695C280.717 191.326 283.45 192.726 283.978 191.014C286.526 182.739 288.872 174.431 291.058 166.056C291.234 165.383 290.188 164.753 289.904 165.496Z" fill="#2B2A2A"/>
<path d="M284.797 191.149C284.63 190.885 284.498 190.685 284.243 190.495C283.841 190.195 283.234 190.145 282.944 190.63C282.646 191.127 282.979 191.631 283.408 191.898C283.668 192.06 283.899 192.096 284.194 192.149C284.824 192.262 285.106 191.638 284.797 191.149Z" fill="#2B2A2A"/>
<path d="M266.241 141.726C254.06 143.58 241.892 158.831 254.681 168.545C256.077 169.605 257.434 167.89 256.21 166.692C246.393 157.086 257.551 145.384 267.832 144.059C278.091 142.736 296.672 148.562 290.69 162.471C290.239 163.52 291.877 164.326 292.459 163.329C301.747 147.446 277.561 140.004 266.241 141.726Z" fill="#2B2A2A"/>
<path d="M265.508 143.877C249.379 146.99 243.968 167.627 266.061 170.941L311.628 311.507L351.671 293.557L282.944 190.63L289.904 165.496C289.904 165.496 295.334 159.341 292.573 153.542C289.811 147.743 281.25 140.839 265.508 143.877Z" fill="#2B2A2A"/>
</svg>
